<?xml version="1.0" standalone="no"?>
<!DOCTYPE svg PUBLIC "-//W3C//DTD SVG 20010904//EN"
 "http://www.w3.org/TR/2001/REC-SVG-20010904/DTD/svg10.dtd">
<svg version="1.0" xmlns="http://www.w3.org/2000/svg"
 width="1980.000000pt" height="1080.000000pt" viewBox="0 0 1980.000000 1080.000000"
 preserveAspectRatio="xMidYMid meet">

<g transform="translate(0.000000,1080.000000) scale(0.100000,-0.100000)"
fill="#000000" stroke="none">
<path d="M7730 9570 c-337 -41 -658 -188 -809 -373 -115 -139 -170 -297 -191
-542 -10 -128 -69 -717 -170 -1710 -87 -862 -146 -1572 -170 -2035 -5 -107
-10 -375 -10 -595 0 -1024 73 -1630 240 -1992 51 -110 169 -287 249 -375 151
-164 361 -280 587 -324 133 -26 397 -24 529 3 481 101 942 382 1477 902 235
227 450 474 678 776 62 83 117 154 121 159 4 5 2 -18 -6 -50 -75 -326 -20
-572 183 -812 54 -64 111 -106 244 -182 l101 -58 86 24 c387 108 1160 204
1641 204 280 0 434 -15 621 -59 179 -43 267 -79 370 -152 32 -22 25 -42 68
181 47 243 55 332 48 534 -11 325 -61 473 -211 622 -95 94 -157 128 -276 150
-267 51 -735 -90 -1305 -394 -121 -64 -224 -119 -229 -121 -13 -5 3 85 24 141
54 141 240 346 465 510 66 49 361 255 655 459 865 601 901 628 1126 853 223
224 379 468 405 631 21 137 -12 279 -94 402 -56 84 -183 221 -274 296 -101 82
-392 260 -418 254 -11 -3 -90 -23 -175 -45 -323 -86 -625 -119 -965 -108 -320
11 -581 43 -815 100 -197 49 -249 58 -276 52 -41 -11 -142 -121 -200 -218 -62
-106 -120 -275 -133 -387 -12 -114 3 -283 29 -326 62 -100 222 -143 495 -132
328 14 660 67 1244 202 62 14 115 24 117 22 2 -2 -85 -73 -194 -157 -566 -441
-808 -643 -1157 -961 -246 -224 -593 -571 -705 -704 -51 -60 -96 -114 -100
-119 -5 -4 -60 19 -123 53 l-116 62 -102 -148 c-305 -438 -581 -776 -874
-1069 -398 -398 -713 -610 -940 -631 -188 -17 -317 121 -364 390 -77 444 -76
1412 4 2653 8 128 15 244 15 258 0 34 17 34 179 -3 166 -39 502 -75 639 -69
56 3 105 8 109 11 6 7 -16 358 -23 366 -3 3 -57 8 -122 12 -117 7 -293 32
-335 48 -12 5 -44 12 -72 16 -41 5 -334 91 -342 99 -3 3 38 526 72 926 33 376
94 982 100 988 11 11 483 -51 976 -128 197 -31 348 -50 401 -50 229 0 445 119
557 306 75 127 132 293 157 459 16 104 23 575 9 645 l-6 35 -102 2 c-109 1
-265 19 -497 58 -307 51 -854 123 -1150 151 -192 18 -856 27 -970 14z"/>
</g>
</svg>
